<svg xmlns="http://www.w3.org/2000/svg" viewBox="0 0 172 238"><defs><style>.cls-1{fill-rule:evenodd;}.cls-2{fill:#f2f2f2;}.cls-3{fill:#fff;}.cls-4,.cls-6{fill:#fff21f;}.cls-4,.cls-5{stroke:#ec0089;stroke-linejoin:round;}.cls-4{stroke-width:0.61px;}.cls-5{fill:#ec0089;stroke-width:0.34px;}</style></defs><title>snaggy-blob</title><g id="Layer_2" data-name="Layer 2"><g id="snaggy-blob"><ellipse id="blob03" cx="118" cy="201" rx="15" ry="13"/><path id="blob02" class="cls-1" d="M76.78,191.1c-6.13-.27-12.42-.11-18.19,1.88C48,196.62,40.26,207,41.06,217.61S51.72,237.82,63,238c15,.24,24.52-6.1,21.76-17.83-1.45-6.2,11.3-11.69,7.58-21.87-2-5.46-9.41-6.92-15.54-7.19"/><g id="blob01"><path class="cls-1" d="M159.56,114.33c-3.89,12.26-2.81,28.69-12.29,38.44-10.5,10.79-27.67,10-41,13.76-13.8,3.87-28.31,13.29-42.15,9.65-7-1.85-10.39-13.52-16.84-17.3-6.24-3.66-17.74-.64-23.06-6.11-5.8-6-3.12-18.3-6.83-25.36C13.51,120.1,2.08,115.58.48,107.62c-2.74-13.71,6.92-27.57,10.82-41,3.78-13,2.87-30.09,12.88-40.38,7.93-8.15,22.16-6.43,31.91-10.56C66.2,11.37,75.2,0,86,0c6.38,0,11.66,10.29,17.9,11.83S119.27,6.62,125,9.62c3.84,2,2.7,12.52,6.26,15.18s12.85-1.81,16,1.41c6.32,6.5,3.92,19.38,7.75,27.16,4,8.06,15.43,13.73,16.73,22.48,2,13.09-8.16,25.79-12.19,38.48"/><circle class="cls-2" cx="135.65" cy="40.74" r="1.06"/><circle class="cls-2" cx="68.08" cy="161.32" r="1.06"/><circle class="cls-2" cx="53.62" cy="67.8" r="1.06"/><circle class="cls-2" cx="147.09" cy="42" r="0.53"/><circle class="cls-2" cx="137.55" cy="136.4" r="0.53"/><circle class="cls-2" cx="78.15" cy="53.67" r="0.53"/><circle class="cls-2" cx="59.59" cy="25.56" r="1.06"/><circle class="cls-2" cx="27.24" cy="112" r="0.53"/><circle class="cls-2" cx="87.8" cy="154.67" r="1.57"/><circle class="cls-3" cx="127.44" cy="117.99" r="2.62"/><circle class="cls-3" cx="154.7" cy="92.6" r="2.62"/><circle class="cls-3" cx="101.89" cy="38.37" r="2.62"/><circle class="cls-3" cx="18.97" cy="66.71" r="2.62"/></g><g id="snaggy"><path class="cls-4" d="M81.6,61.86a18.89,18.89,0,0,1-2.45-8.5c-.36-6.12,5.75-15.12,12.47-17.6-.17-.95-6.73.56-6.73.56s-5.44.74-8.74,3.72a22.33,22.33,0,0,0-5.43,7.18c-4.1,7.27-3.16,12.49-2.32,20.47a9.39,9.39,0,0,0,.4,1.74l-.06-.07L83,62.74Z"/><path class="cls-5" d="M109.32,131.25s.5-3.25.53-4.85c.59.61.7,1.13,1.31,1.63.42-1.15,0-2.51.39-3.7.26.29.77.37,1,.66a8.7,8.7,0,0,1,.85-2.58c0,.07.78.44.83.51a6.82,6.82,0,0,1,.79-3.72c.27.35,1.18-.12,2.08-.29a4.92,4.92,0,0,1-.92-4.76,3.13,3.13,0,0,0,1.17,2.32c0-.88-.91-4.74-.49-5.61a11.43,11.43,0,0,0,1.53,2s.29-3.82.59-6l1.68,1c-.42-1.43-1.2-2.75,0-4.16.18.21.51.4.66.59.36-1.15-1-3.73-.48-4.82a7.61,7.61,0,0,1,1.1,1.29,28.73,28.73,0,0,0-.38-4.69c.46.34,1.38.54,1.83.9a24.82,24.82,0,0,0-1.15-2.35l1.47-.29-.75-.51c.53-.16.86-.47.82-.74-.11-.6-.52-2.9-.76-3.64l.38-1.82c.1-2.55-1.8-2.2-2.28-4.64a3.47,3.47,0,0,0-.14-.5l.38-.1-.78-.54a3.75,3.75,0,0,1-1.15-1.47c.23,0,1.07.36,1.27.33-.28-.6-2.46-3.59-2.58-3.82a14.73,14.73,0,0,1,2.37,1.21,13.21,13.21,0,0,0-2.25-3.33c-.82-1-2.54-2.41-2.87-3.35.88.38.71,0,1.7,0-1.86-2.91-3.62-1.39-4.9-2.85,1-.3.94-1,1.79-1-2-1.47-2.71-.1-4.65-1.35a8.07,8.07,0,0,0,2.35-.57,6.67,6.67,0,0,0,2-2,26.34,26.34,0,0,0-5.1-1.31,10.17,10.17,0,0,0-2.24.48,4.2,4.2,0,0,0,0-1.06,7.36,7.36,0,0,0-3.94,2.6c2.1-3.54-.31-11.73-.31-11.73A53.9,53.9,0,0,0,99,58.87c-.5,1.4-.81,1.38-1,3-.65-.17.11-.13-.53-.26-1.71-1.61-2.8-2.91-4.6-4.39a8.77,8.77,0,0,0-.17,3.62,24,24,0,0,0-7-4.24A21,21,0,0,1,88.31,61c-1.72-.91-2.76-1.7-6.06.21.83,0,1.88.52,2.56.12-.43.42-.91.8-1.38,1.19l0-.12c-1.69.77-3-.61-3.28-.85a4,4,0,0,0-.43,1.8c-.8.19-2.62-2.15-2.62-2.15L77.36,64c-.2.55-2.33,0-2.33,0a5,5,0,0,0,.33,1c-.84.08-1.69-.41-2.51-.3.24.48.57.63.88,1.11a16.42,16.42,0,0,1-3.22-1.46s.12,1.72.91,2.26a5.68,5.68,0,0,1-2.58-.75l.3,1c.28.48-.47.75-1.58.85a1.65,1.65,0,0,1,.2,1,31.54,31.54,0,0,0-3.62.86c.56.16,1.11.53,1.66.69a23.55,23.55,0,0,1-2.31,1.38l-3,1.63c.27.54,1,.64,1.56.8-.6,1-2,1.12-2.78,2.09.25,0,.6.16.88.18-.43,1.8-1.9,2-3.31,2.52l1.8.76c-1.93,1.88-5.27,3.16-6.83,5.22.94-.21,1.9-.58,2.84-.72A13,13,0,0,1,52,86.9a2.2,2.2,0,0,0,2.18,0C53.12,88.7,51.93,89,49.9,90.1c.71.41,1,.91,1.79.78-.56,1.06-.64,1.36-2.71,2,.08,0,1.48,1.32-1.07,2.41.4.05.77.4,1.15.45-.72,1-2.07,1.49-2.75,2.5a15.78,15.78,0,0,0,2.09.09c-1.28,1-2.37,2.41-3.79,3.09a4.74,4.74,0,0,1,2.46.23,8.3,8.3,0,0,1-3.33,2.14,28.15,28.15,0,0,1,4.6.84,4.18,4.18,0,0,0-1.75,2l2.27-.84a30.37,30.37,0,0,1-2.62,3.44,12.05,12.05,0,0,0,4.34.08,5.27,5.27,0,0,0,1.07-.44l.06,0c-.08.21-.16.45-.26.73a18.14,18.14,0,0,1-2.29,4.68c2.2-.58,3.93-1.92,6.18-2.45a6.14,6.14,0,0,1,.16,1,6.21,6.21,0,0,1,2.14-.71,6.78,6.78,0,0,1-1.28,4.26,10.72,10.72,0,0,0,3.42-.9,3.72,3.72,0,0,1-.1,1.81c1.48-.62,2.81-2.17,4.11-3.2a12.82,12.82,0,0,1,.11,2.35,2.61,2.61,0,0,1,1.86-.53c0,.45.23,1.15.21,1.49.26-.17.61-.22.9-.44.55,1.31-.05,3-.26,4.29,1.12-.45,2.07-1.26,3.13-1.66-.3,2.07.45,4,0,6.07,1.32-.42,1.85-2,2.83-2.91a14.1,14.1,0,0,1,4.58-2.42l.31.11c.14,1.08-.61,2-.36,3.11.21-.08.88,0,1.12-.07a14.89,14.89,0,0,1,0,2.81s1.23-1,2.08-.89c-.77,1.81,1.82.58,1.65,2.92.81-1,2.26-.75,3.3-1.58.94,1.27.88,4.29,1.35,6,1.76.22,5.58-1.27,7.07-2.35a7.24,7.24,0,0,0-.74,4.44s2.42-3.54,3-3.84a15,15,0,0,1,.08,2,6.14,6.14,0,0,1,1.4-1.22c.63.91.44,2.1.86,3.12a4.4,4.4,0,0,1,1.65-.85,4.08,4.08,0,0,0,.34,1.8c.57-.8,1.07-1.67,1.61-2.49a27.5,27.5,0,0,0,.46,4.52s.38-.9.58-1.29.59-1,1-1.69c.57-.91,1.83.66,1.83.66s-.34-2.66.08-2.84,1.07-.36,1.38-.06a6.19,6.19,0,0,1,.48-3.29,6.37,6.37,0,0,1,1.65,1.83"/><polygon class="cls-6" points="67.78 95.35 70.36 98.52 63.61 106.54 67.78 95.35"/><polygon class="cls-6" points="72.51 100.31 74.96 103 71.01 106.5 72.51 100.31"/><polygon class="cls-6" points="93.52 113.1 96.43 113.46 93.3 117.02 93.52 113.1"/><polygon class="cls-6" points="97.89 113.96 101.59 114.1 96.2 121.58 97.89 113.96"/><polygon class="cls-6" points="79.52 105.81 81.55 107.08 78.6 109.02 79.52 105.81"/><polygon class="cls-6" points="86 109.04 83.83 108.01 83.44 110.96 86 109.04"/><polygon class="cls-6" points="90.69 111.98 88.53 110.95 88.14 113.9 90.69 111.98"/><polygon class="cls-6" points="107.95 111.7 104.71 104.82 111.37 104.17 111.13 101.73 103.61 102.47 100.57 96.01 98.35 97.05 101.02 102.72 94.5 103.35 94.75 105.79 102.12 105.07 105.73 112.73 107.95 111.7"/><path class="cls-6" d="M81.83,95.22c-1.47-3.37-.72-8.19-3.7-11-1.53-1.44-5.07-1.68-7.29-1.75-1.93-.06-3.27-.79-4.87-1.11,2.75,2.91,2.86,8.28,6.27,10.89,2.58,2,8.26,1.89,10,4.28,0,0-.3-1.17-.37-1.31"/><path class="cls-4" d="M123,93.83c.18-.06,8.17-3.3,10.63-6.65-.23.23-.19.23-.18.21a16.46,16.46,0,0,0,3-5.71A12.42,12.42,0,0,1,134,83.25a15.17,15.17,0,0,0,2.45-7.81c-1.27,1.43-2.14,3.15-3.85,4.15-.62-1.1-.39-3.11-.46-4.44-.67,1.3-1.94,3.18-1.94,3.18l-.28-1.54s-1.47,3.26-3.2,4a14.55,14.55,0,0,1-1.49.76,12,12,0,0,1-4,1.07c-.35,0,.24,1,.24,1l-1.09.48a11.28,11.28,0,0,1,2.47,1.82s-1.32.41-1.74.62a4.3,4.3,0,0,0-1,.86l2.42.61s-1.32.11-1.53,1.26c-.09.48,1.72,1,1.72,1a3.22,3.22,0,0,0-.6,1.15c0,.3,1.19,1,1.19,1a7.67,7.67,0,0,0-.32,1.39"/></g></g></g></svg>