<svg id="Ebene_1" data-name="Ebene 1" xmlns="http://www.w3.org/2000/svg" viewBox="0 0 248.87 196.14"><defs><style>.cls-1,.cls-2{fill:#2a6a38;}.cls-1{fill-rule:evenodd;}.cls-3{fill:#fd0;}</style></defs><title>Haus_4c_mac</title><path class="cls-1" d="M407.93,451.32a7.2,7.2,0,0,0-2.17,5.27,7.29,7.29,0,0,0,2.16,5.31,7.44,7.44,0,0,0,10.55,0,7.53,7.53,0,0,0,0-10.58,7.42,7.42,0,0,0-10.54,0Zm11.4,11.42a8.67,8.67,0,1,1,2.54-6.15,8.34,8.34,0,0,1-2.54,6.15Zm-4.51-9.43a4.29,4.29,0,0,0-2-.35h-1.43v3.45h1.51a4.53,4.53,0,0,0,1.59-.21,1.47,1.47,0,0,0,1-1.49,1.45,1.45,0,0,0-.64-1.39Zm-1.79-1.5a7.24,7.24,0,0,1,2.6.34,2.35,2.35,0,0,1,1.47,2.41,2.07,2.07,0,0,1-.93,1.88,3.62,3.62,0,0,1-1.38.46,2.31,2.31,0,0,1,1.64.93,2.61,2.61,0,0,1,.52,1.47v.7c0,.22,0,.46,0,.71a1.52,1.52,0,0,0,.08.5l.06.12h-1.57l0-.09,0-.11,0-.31v-.75a2.33,2.33,0,0,0-.9-2.18,4,4,0,0,0-1.86-.31h-1.32v3.75h-1.68v-9.51Z" transform="translate(-173 -322.89)"/><path class="cls-2" d="M341.31,464.76a3,3,0,0,1-2.79-2.85V353.64l23.57,16v77.88l8.7,0v17.29Z" transform="translate(-173 -322.89)"/><path class="cls-2" d="M376.37,461.91V379.21l33.53,22.62v11.33h-9.75v6.62h8.46l0,17h-8.45v25.12a3,3,0,0,1-2.82,2.85H379.19a3,3,0,0,1-2.83-2.85Z" transform="translate(-173 -322.89)"/><polygon class="cls-3" points="156.99 82.61 156.99 31.49 120.31 6.6 8.21 82.61 156.99 82.61 156.99 82.61"/><path class="cls-2" d="M265.36,414.08v47.83a3,3,0,0,1-2.83,2.85h-83a3,3,0,0,1-2.83-2.85s0-29.35,0-47.83a3,3,0,0,1,2.83-2.79h18.11a3,3,0,0,1,2.86,2.78v33.4h8.46v-33.4a2.77,2.77,0,0,1,2.86-2.78h18.4a3.07,3.07,0,0,1,2.84,2.79v33.39h8.52V414.08a3,3,0,0,1,2.83-2.79h18.14a3,3,0,0,1,2.83,2.79Z" transform="translate(-173 -322.89)"/><polygon class="cls-2" points="3.31 195.24 3.31 160.36 10.53 160.36 10.53 173.66 24.16 173.66 24.16 160.36 31.4 160.36 31.4 195.24 24.16 195.24 24.16 179.67 10.53 179.67 10.53 195.24 3.31 195.24 3.31 195.24"/><path class="cls-1" d="M255.18,504.95H264l-4.35-13.72-4.5,13.72Zm.45-21.7h8.23l12.35,34.88h-7.9L266.06,511H253.22l-2.41,7.17h-7.62l12.45-34.88Z" transform="translate(-173 -322.89)"/><path class="cls-2" d="M314.93,483.25h7.41v21.44a12.1,12.1,0,0,0,.85,5.25q1.32,2.94,5.77,2.93t5.75-2.93a12.11,12.11,0,0,0,.85-5.25V483.25H343v21.44q0,5.56-1.73,8.66Q338,519,329,519t-12.3-5.68q-1.73-3.1-1.73-8.66V483.25Z" transform="translate(-173 -322.89)"/><path class="cls-2" d="M388.49,507.36a7.16,7.16,0,0,0,1.3,3.57q1.78,2.15,6.08,2.15a12.82,12.82,0,0,0,4.19-.57,4,4,0,0,0,3.05-4,3,3,0,0,0-1.51-2.67,16.21,16.21,0,0,0-4.76-1.63l-3.69-.83q-5.44-1.23-7.52-2.67-3.53-2.41-3.53-7.55a10.08,10.08,0,0,1,3.41-7.78q3.41-3.1,10-3.1a15.14,15.14,0,0,1,9.39,2.93,10.39,10.39,0,0,1,4.09,8.47h-7a5,5,0,0,0-2.75-4.47,9.21,9.21,0,0,0-4.24-.88,7.91,7.91,0,0,0-4.5,1.14,3.61,3.61,0,0,0-1.68,3.17,3,3,0,0,0,1.66,2.79,20.14,20.14,0,0,0,4.54,1.44l6,1.44a15.54,15.54,0,0,1,6,2.53,8.53,8.53,0,0,1,3.12,7.12,10.08,10.08,0,0,1-3.67,8Q402.83,519,396.16,519t-10.72-3.1a10.37,10.37,0,0,1-3.9-8.57Z" transform="translate(-173 -322.89)"/><polygon class="cls-2" points="120.23 0 156.99 24.95 156.99 32.31 120.22 7.37 10.76 82.6 0 82.6 120.23 0 120.23 0"/><path class="cls-1" d="M327.14,411.29H276.7a3.05,3.05,0,0,0-2.84,2.83v47.79a3.07,3.07,0,0,0,2.84,2.85h50.43a3.06,3.06,0,0,0,2.84-2.85V414.12A3,3,0,0,0,327.14,411.29Zm-21,36.18h-8.63V428.22h8.63Z" transform="translate(-173 -322.89)"/><rect class="cls-2" x="3.66" y="147.67" width="231.73" height="5.95"/></svg>